{
  "accessors": [
    {
      "name": "Node-Mesh_0_positions",
      "componentType": 5126,
      "count": 7268,
      "min": [
        169.5,
        46.5,
        -50.5
      ],
      "max": [
        269.5,
        55.5,
        49.5
      ],
      "type": "VEC3",
      "bufferView": 0,
      "byteOffset": 0
    },
    {
      "name": "Node-Mesh_0_texcoords",
      "componentType": 5126,
      "count": 7268,
      "min": [
        -15,
        0
      ],
      "max": [
        16,
        1
      ],
      "type": "VEC2",
      "bufferView": 1,
      "byteOffset": 0
    },
    {
      "name": "Node-Mesh_0_indices",
      "componentType": 5123,
      "count": 10902,
      "min": [
        0
      ],
      "max": [
        7267
      ],
      "type": "SCALAR",
      "bufferView": 2,
      "byteOffset": 0
    },
    {
      "name": "Node-Mesh_1_positions",
      "componentType": 5126,
      "count": 3208,
      "min": [
        169.5,
        46.5,
        -50.5
      ],
      "max": [
        269.5,
        54.5,
        49.5
      ],
      "type": "VEC3",
      "bufferView": 0,
      "byteOffset": 87216
    },
    {
      "name": "Node-Mesh_1_texcoords",
      "componentType": 5126,
      "count": 3208,
      "min": [
        0,
        -15
      ],
      "max": [
        16,
        1
      ],
      "type": "VEC2",
      "bufferView": 1,
      "byteOffset": 58144
    },
    {
      "name": "Node-Mesh_1_indices",
      "componentType": 5123,
      "count": 4812,
      "min": [
        0
      ],
      "max": [
        3207
      ],
      "type": "SCALAR",
      "bufferView": 2,
      "byteOffset": 21804
    },
    {
      "name": "Node-Mesh_2_positions",
      "componentType": 5126,
      "count": 3208,
      "min": [
        169.5,
        47.5,
        -50.5
      ],
      "max": [
        269.5,
        55.5,
        49.5
      ],
      "type": "VEC3",
      "bufferView": 0,
      "byteOffset": 125712
    },
    {
      "name": "Node-Mesh_2_texcoords",
      "componentType": 5126,
      "count": 3208,
      "min": [
        0,
        0
      ],
      "max": [
        16,
        16
      ],
      "type": "VEC2",
      "bufferView": 1,
      "byteOffset": 83808
    },
    {
      "name": "Node-Mesh_2_indices",
      "componentType": 5123,
      "count": 4812,
      "min": [
        0
      ],
      "max": [
        3207
      ],
      "type": "SCALAR",
      "bufferView": 2,
      "byteOffset": 31428
    }
  ],
  "asset": {
    "generator": "obj2gltf",
    "version": "2.0"
  },
  "buffers": [
    {
      "name": "out",
      "byteLength": 316572,
      "uri": "data:application/octet-stream;base64,"
    }
  ],
  "bufferViews": [
    {
      "name": "bufferView_0",
      "buffer": 0,
      "byteLength": 164208,
      "byteOffset": 0,
      "byteStride": 12,
      "target": 34962
    },
    {
      "name": "bufferView_1",
      "buffer": 0,
      "byteLength": 109472,
      "byteOffset": 164208,
      "byteStride": 8,
      "target": 34962
    },
    {
      "name": "bufferView_2",
      "buffer": 0,
      "byteLength": 41052,
      "byteOffset": 273680,
      "target": 34963
    },
    {
      "buffer": 0,
      "byteOffset": 314732,
      "byteLength": 1041
    },
    {
      "buffer": 0,
      "byteOffset": 315773,
      "byteLength": 272
    },
    {
      "buffer": 0,
      "byteOffset": 316045,
      "byteLength": 527
    }
  ],
  "images": [
    {
      "name": "grass_block_side",
      "mimeType": "image/png",
      "bufferView": 3
    },
    {
      "name": "dirt",
      "mimeType": "image/png",
      "bufferView": 4
    },
    {
      "name": "grass_block_top",
      "mimeType": "image/png",
      "bufferView": 5
    }
  ],
  "materials": [
    {
      "name": "minecraft_block-grass_block_side",
      "pbrMetallicRoughness": {
        "baseColorTexture": {
          "index": 0
        },
        "baseColorFactor": [
          1,
          1,
          1,
          1
        ],
        "metallicFactor": 0,
        "roughnessFactor": 1
      },
      "emissiveFactor": [
        0,
        0,
        0
      ],
      "alphaMode": "OPAQUE",
      "doubleSided": false
    },
    {
      "name": "minecraft_block-dirt",
      "pbrMetallicRoughness": {
        "baseColorTexture": {
          "index": 1
        },
        "baseColorFactor": [
          1,
          1,
          1,
          1
        ],
        "metallicFactor": 0,
        "roughnessFactor": 1
      },
      "emissiveFactor": [
        0,
        0,
        0
      ],
      "alphaMode": "OPAQUE",
      "doubleSided": false
    },
    {
      "name": "minecraft_block-grass_block_top",
      "pbrMetallicRoughness": {
        "baseColorTexture": {
          "index": 2
        },
        "baseColorFactor": [
          1,
          1,
          1,
          1
        ],
        "metallicFactor": 0,
        "roughnessFactor": 1
      },
      "emissiveFactor": [
        0,
        0,
        0
      ],
      "alphaMode": "OPAQUE",
      "doubleSided": false
    }
  ],
  "meshes": [
    {
      "name": "Node-Mesh",
      "primitives": [
        {
          "attributes": {
            "POSITION": 0,
            "TEXCOORD_0": 1
          },
          "indices": 2,
          "material": 0,
          "mode": 4
        },
        {
          "attributes": {
            "POSITION": 3,
            "TEXCOORD_0": 4
          },
          "indices": 5,
          "material": 1,
          "mode": 4
        },
        {
          "attributes": {
            "POSITION": 6,
            "TEXCOORD_0": 7
          },
          "indices": 8,
          "material": 2,
          "mode": 4
        }
      ]
    }
  ],
  "nodes": [
    {
      "name": "Node",
      "mesh": 0
    }
  ],
  "samplers": [
    {
      "wrapS": 10497,
      "wrapT": 10497
    }
  ],
  "scene": 0,
  "scenes": [
    {
      "nodes": [
        0
      ]
    }
  ],
  "textures": [
    {
      "name": "grass_block_side",
      "sampler": 0,
      "source": 0
    },
    {
      "name": "dirt",
      "sampler": 0,
      "source": 1
    },
    {
      "name": "grass_block_top",
      "sampler": 0,
      "source": 2
    }
  ]
}
