{
  "accessors": [
    {
      "name": "Node-Mesh_0_positions",
      "componentType": 5126,
      "count": 83510,
      "min": [
        609.5,
        33.5,
        -50.5
      ],
      "max": [
        709.5,
        64.5,
        49.5
      ],
      "type": "VEC3",
      "bufferView": 0,
      "byteOffset": 0
    },
    {
      "name": "Node-Mesh_0_texcoords",
      "componentType": 5126,
      "count": 83510,
      "min": [
        -9,
        0
      ],
      "max": [
        10,
        9
      ],
      "type": "VEC2",
      "bufferView": 1,
      "byteOffset": 0
    },
    {
      "name": "Node-Mesh_0_indices",
      "componentType": 5125,
      "count": 160848,
      "min": [
        0
      ],
      "max": [
        83509
      ],
      "type": "SCALAR",
      "bufferView": 2,
      "byteOffset": 0
    },
    {
      "name": "Node-Mesh_1_positions",
      "componentType": 5126,
      "count": 6916,
      "min": [
        609.5,
        46.5,
        -50.5
      ],
      "max": [
        709.5,
        55.5,
        49.5
      ],
      "type": "VEC3",
      "bufferView": 0,
      "byteOffset": 1002120
    },
    {
      "name": "Node-Mesh_1_texcoords",
      "componentType": 5126,
      "count": 6916,
      "min": [
        -15,
        0
      ],
      "max": [
        16,
        1
      ],
      "type": "VEC2",
      "bufferView": 1,
      "byteOffset": 668080
    },
    {
      "name": "Node-Mesh_1_indices",
      "componentType": 5125,
      "count": 10374,
      "min": [
        0
      ],
      "max": [
        6915
      ],
      "type": "SCALAR",
      "bufferView": 2,
      "byteOffset": 643392
    },
    {
      "name": "Node-Mesh_2_positions",
      "componentType": 5126,
      "count": 4260,
      "min": [
        609.5,
        46.5,
        -50.5
      ],
      "max": [
        709.5,
        54.5,
        49.5
      ],
      "type": "VEC3",
      "bufferView": 0,
      "byteOffset": 1085112
    },
    {
      "name": "Node-Mesh_2_texcoords",
      "componentType": 5126,
      "count": 4260,
      "min": [
        0,
        -9
      ],
      "max": [
        16,
        1
      ],
      "type": "VEC2",
      "bufferView": 1,
      "byteOffset": 723408
    },
    {
      "name": "Node-Mesh_2_indices",
      "componentType": 5125,
      "count": 6390,
      "min": [
        0
      ],
      "max": [
        4259
      ],
      "type": "SCALAR",
      "bufferView": 2,
      "byteOffset": 684888
    },
    {
      "name": "Node-Mesh_3_positions",
      "componentType": 5126,
      "count": 4116,
      "min": [
        609.5,
        47.5,
        -50.5
      ],
      "max": [
        709.5,
        55.5,
        49.5
      ],
      "type": "VEC3",
      "bufferView": 0,
      "byteOffset": 1136232
    },
    {
      "name": "Node-Mesh_3_texcoords",
      "componentType": 5126,
      "count": 4116,
      "min": [
        0,
        0
      ],
      "max": [
        16,
        11
      ],
      "type": "VEC2",
      "bufferView": 1,
      "byteOffset": 757488
    },
    {
      "name": "Node-Mesh_3_indices",
      "componentType": 5125,
      "count": 6174,
      "min": [
        0
      ],
      "max": [
        4115
      ],
      "type": "SCALAR",
      "bufferView": 2,
      "byteOffset": 710448
    }
  ],
  "asset": {
    "generator": "obj2gltf",
    "version": "2.0"
  },
  "buffers": [
    {
      "name": "output_world_fastperlin",
      "byteLength": 2713196,
      "uri": "data:application/octet-stream;base64,"
    }
  ],
  "bufferViews": [
    {
      "name": "bufferView_0",
      "buffer": 0,
      "byteLength": 1185624,
      "byteOffset": 0,
      "byteStride": 12,
      "target": 34962
    },
    {
      "name": "bufferView_1",
      "buffer": 0,
      "byteLength": 790416,
      "byteOffset": 1185624,
      "byteStride": 8,
      "target": 34962
    },
    {
      "name": "bufferView_2",
      "buffer": 0,
      "byteLength": 735144,
      "byteOffset": 1976040,
      "target": 34963
    },
    {
      "buffer": 0,
      "byteOffset": 2711184,
      "byteLength": 172
    },
    {
      "buffer": 0,
      "byteOffset": 2711356,
      "byteLength": 1041
    },
    {
      "buffer": 0,
      "byteOffset": 2712397,
      "byteLength": 272
    },
    {
      "buffer": 0,
      "byteOffset": 2712669,
      "byteLength": 527
    }
  ],
  "images": [
    {
      "name": "stone",
      "mimeType": "image/png",
      "bufferView": 3
    },
    {
      "name": "grass_block_side",
      "mimeType": "image/png",
      "bufferView": 4
    },
    {
      "name": "dirt",
      "mimeType": "image/png",
      "bufferView": 5
    },
    {
      "name": "grass_block_top",
      "mimeType": "image/png",
      "bufferView": 6
    }
  ],
  "materials": [
    {
      "name": "minecraft_block-stone",
      "pbrMetallicRoughness": {
        "baseColorTexture": {
          "index": 0
        },
        "baseColorFactor": [
          1,
          1,
          1,
          1
        ],
        "metallicFactor": 0,
        "roughnessFactor": 1
      },
      "emissiveFactor": [
        0,
        0,
        0
      ],
      "alphaMode": "OPAQUE",
      "doubleSided": false
    },
    {
      "name": "minecraft_block-grass_block_side",
      "pbrMetallicRoughness": {
        "baseColorTexture": {
          "index": 1
        },
        "baseColorFactor": [
          1,
          1,
          1,
          1
        ],
        "metallicFactor": 0,
        "roughnessFactor": 1
      },
      "emissiveFactor": [
        0,
        0,
        0
      ],
      "alphaMode": "OPAQUE",
      "doubleSided": false
    },
    {
      "name": "minecraft_block-dirt",
      "pbrMetallicRoughness": {
        "baseColorTexture": {
          "index": 2
        },
        "baseColorFactor": [
          1,
          1,
          1,
          1
        ],
        "metallicFactor": 0,
        "roughnessFactor": 1
      },
      "emissiveFactor": [
        0,
        0,
        0
      ],
      "alphaMode": "OPAQUE",
      "doubleSided": false
    },
    {
      "name": "minecraft_block-grass_block_top",
      "pbrMetallicRoughness": {
        "baseColorTexture": {
          "index": 3
        },
        "baseColorFactor": [
          1,
          1,
          1,
          1
        ],
        "metallicFactor": 0,
        "roughnessFactor": 1
      },
      "emissiveFactor": [
        0,
        0,
        0
      ],
      "alphaMode": "OPAQUE",
      "doubleSided": false
    }
  ],
  "meshes": [
    {
      "name": "Node-Mesh",
      "primitives": [
        {
          "attributes": {
            "POSITION": 0,
            "TEXCOORD_0": 1
          },
          "indices": 2,
          "material": 0,
          "mode": 4
        },
        {
          "attributes": {
            "POSITION": 3,
            "TEXCOORD_0": 4
          },
          "indices": 5,
          "material": 1,
          "mode": 4
        },
        {
          "attributes": {
            "POSITION": 6,
            "TEXCOORD_0": 7
          },
          "indices": 8,
          "material": 2,
          "mode": 4
        },
        {
          "attributes": {
            "POSITION": 9,
            "TEXCOORD_0": 10
          },
          "indices": 11,
          "material": 3,
          "mode": 4
        }
      ]
    }
  ],
  "nodes": [
    {
      "name": "Node",
      "mesh": 0
    }
  ],
  "samplers": [
    {
      "wrapS": 10497,
      "wrapT": 10497
    }
  ],
  "scene": 0,
  "scenes": [
    {
      "nodes": [
        0
      ]
    }
  ],
  "textures": [
    {
      "name": "stone",
      "sampler": 0,
      "source": 0
    },
    {
      "name": "grass_block_side",
      "sampler": 0,
      "source": 1
    },
    {
      "name": "dirt",
      "sampler": 0,
      "source": 2
    },
    {
      "name": "grass_block_top",
      "sampler": 0,
      "source": 3
    }
  ]
}
