{
  "accessors": [
    {
      "name": "Node-Mesh_0_positions",
      "componentType": 5126,
      "count": 42336,
      "min": [
        -50.5,
        25.5,
        -50.5
      ],
      "max": [
        49.5,
        58.5,
        49.5
      ],
      "type": "VEC3",
      "bufferView": 0,
      "byteOffset": 0
    },
    {
      "name": "Node-Mesh_0_texcoords",
      "componentType": 5126,
      "count": 42336,
      "min": [
        -15,
        -31
      ],
      "max": [
        16,
        16
      ],
      "type": "VEC2",
      "bufferView": 1,
      "byteOffset": 0
    },
    {
      "name": "Node-Mesh_0_indices",
      "componentType": 5123,
      "count": 71418,
      "min": [
        0
      ],
      "max": [
        42335
      ],
      "type": "SCALAR",
      "bufferView": 2,
      "byteOffset": 0
    },
    {
      "name": "Node-Mesh_1_positions",
      "componentType": 5126,
      "count": 1131,
      "min": [
        -42.5,
        48.5,
        -47.5
      ],
      "max": [
        49.5,
        54.5,
        49.5
      ],
      "type": "VEC3",
      "bufferView": 0,
      "byteOffset": 508032
    },
    {
      "name": "Node-Mesh_1_texcoords",
      "componentType": 5126,
      "count": 1131,
      "min": [
        -3,
        0
      ],
      "max": [
        14,
        3
      ],
      "type": "VEC2",
      "bufferView": 1,
      "byteOffset": 338688
    },
    {
      "name": "Node-Mesh_1_indices",
      "componentType": 5123,
      "count": 1800,
      "min": [
        0
      ],
      "max": [
        1130
      ],
      "type": "SCALAR",
      "bufferView": 2,
      "byteOffset": 142836
    },
    {
      "name": "Node-Mesh_2_positions",
      "componentType": 5126,
      "count": 13024,
      "min": [
        -50.5,
        44.5,
        -50.5
      ],
      "max": [
        49.5,
        64.5,
        49.5
      ],
      "type": "VEC3",
      "bufferView": 0,
      "byteOffset": 521604
    },
    {
      "name": "Node-Mesh_2_texcoords",
      "componentType": 5126,
      "count": 13024,
      "min": [
        -15,
        0
      ],
      "max": [
        16,
        1
      ],
      "type": "VEC2",
      "bufferView": 1,
      "byteOffset": 347736
    },
    {
      "name": "Node-Mesh_2_indices",
      "componentType": 5123,
      "count": 19638,
      "min": [
        0
      ],
      "max": [
        13023
      ],
      "type": "SCALAR",
      "bufferView": 2,
      "byteOffset": 146436
    },
    {
      "name": "Node-Mesh_3_positions",
      "componentType": 5126,
      "count": 164,
      "min": [
        -33.5,
        50.375,
        -32.5
      ],
      "max": [
        -10.5,
        54.375,
        47.5
      ],
      "type": "VEC3",
      "bufferView": 0,
      "byteOffset": 677892
    },
    {
      "name": "Node-Mesh_3_texcoords",
      "componentType": 5126,
      "count": 164,
      "min": [
        0,
        0
      ],
      "max": [
        9,
        5
      ],
      "type": "VEC2",
      "bufferView": 1,
      "byteOffset": 451928
    },
    {
      "name": "Node-Mesh_3_indices",
      "componentType": 5123,
      "count": 246,
      "min": [
        0
      ],
      "max": [
        163
      ],
      "type": "SCALAR",
      "bufferView": 2,
      "byteOffset": 185712
    },
    {
      "name": "Node-Mesh_4_positions",
      "componentType": 5126,
      "count": 5301,
      "min": [
        -50.5,
        43.5,
        -50.5
      ],
      "max": [
        49.5,
        63.5,
        49.5
      ],
      "type": "VEC3",
      "bufferView": 0,
      "byteOffset": 679860
    },
    {
      "name": "Node-Mesh_4_texcoords",
      "componentType": 5126,
      "count": 5301,
      "min": [
        -15,
        -3
      ],
      "max": [
        16,
        5
      ],
      "type": "VEC2",
      "bufferView": 1,
      "byteOffset": 453240
    },
    {
      "name": "Node-Mesh_4_indices",
      "componentType": 5123,
      "count": 8382,
      "min": [
        0
      ],
      "max": [
        5300
      ],
      "type": "SCALAR",
      "bufferView": 2,
      "byteOffset": 186204
    },
    {
      "name": "Node-Mesh_5_positions",
      "componentType": 5126,
      "count": 8160,
      "min": [
        -50.5,
        45.5,
        -50.5
      ],
      "max": [
        49.5,
        64.5,
        49.5
      ],
      "type": "VEC3",
      "bufferView": 0,
      "byteOffset": 743472
    },
    {
      "name": "Node-Mesh_5_texcoords",
      "componentType": 5126,
      "count": 8160,
      "min": [
        0,
        0
      ],
      "max": [
        16,
        12
      ],
      "type": "VEC2",
      "bufferView": 1,
      "byteOffset": 495648
    },
    {
      "name": "Node-Mesh_5_indices",
      "componentType": 5123,
      "count": 12240,
      "min": [
        0
      ],
      "max": [
        8159
      ],
      "type": "SCALAR",
      "bufferView": 2,
      "byteOffset": 202968
    },
    {
      "name": "Node-Mesh_6_positions",
      "componentType": 5126,
      "count": 694,
      "min": [
        -33.5,
        49.5,
        -39.5
      ],
      "max": [
        -10.5,
        54.375,
        48.5
      ],
      "type": "VEC3",
      "bufferView": 0,
      "byteOffset": 841392
    },
    {
      "name": "Node-Mesh_6_texcoords",
      "componentType": 5126,
      "count": 694,
      "min": [
        -0.2071000039577484,
        -0.2071000337600708
      ],
      "max": [
        4,
        1.2071000337600708
      ],
      "type": "VEC2",
      "bufferView": 1,
      "byteOffset": 560928
    },
    {
      "name": "Node-Mesh_6_indices",
      "componentType": 5123,
      "count": 1044,
      "min": [
        0
      ],
      "max": [
        693
      ],
      "type": "SCALAR",
      "bufferView": 2,
      "byteOffset": 227448
    }
  ],
  "asset": {
    "generator": "obj2gltf",
    "version": "2.0"
  },
  "buffers": [
    {
      "name": "out",
      "byteLength": 1648760,
      "uri": "data:application/octet-stream;base64,"
    }
  ],
  "bufferViews": [
    {
      "name": "bufferView_0",
      "buffer": 0,
      "byteLength": 849720,
      "byteOffset": 0,
      "byteStride": 12,
      "target": 34962
    },
    {
      "name": "bufferView_1",
      "buffer": 0,
      "byteLength": 566480,
      "byteOffset": 849720,
      "byteStride": 8,
      "target": 34962
    },
    {
      "name": "bufferView_2",
      "buffer": 0,
      "byteLength": 229536,
      "byteOffset": 1416200,
      "target": 34963
    },
    {
      "buffer": 0,
      "byteOffset": 1645736,
      "byteLength": 172
    },
    {
      "buffer": 0,
      "byteOffset": 1645908,
      "byteLength": 256
    },
    {
      "buffer": 0,
      "byteOffset": 1646164,
      "byteLength": 1041
    },
    {
      "buffer": 0,
      "byteOffset": 1647205,
      "byteLength": 254
    },
    {
      "buffer": 0,
      "byteOffset": 1647459,
      "byteLength": 272
    },
    {
      "buffer": 0,
      "byteOffset": 1647731,
      "byteLength": 527
    },
    {
      "buffer": 0,
      "byteOffset": 1648258,
      "byteLength": 502
    }
  ],
  "images": [
    {
      "name": "stone",
      "mimeType": "image/png",
      "bufferView": 3
    },
    {
      "name": "sand",
      "mimeType": "image/png",
      "bufferView": 4
    },
    {
      "name": "grass_block_side",
      "mimeType": "image/png",
      "bufferView": 5
    },
    {
      "name": "water_still",
      "mimeType": "image/png",
      "bufferView": 6
    },
    {
      "name": "dirt",
      "mimeType": "image/png",
      "bufferView": 7
    },
    {
      "name": "grass_block_top",
      "mimeType": "image/png",
      "bufferView": 8
    },
    {
      "name": "water_flow",
      "mimeType": "image/png",
      "bufferView": 9
    }
  ],
  "materials": [
    {
      "name": "minecraft_block-stone",
      "pbrMetallicRoughness": {
        "baseColorTexture": {
          "index": 0
        },
        "baseColorFactor": [
          1,
          1,
          1,
          1
        ],
        "metallicFactor": 0,
        "roughnessFactor": 1
      },
      "emissiveFactor": [
        0,
        0,
        0
      ],
      "alphaMode": "OPAQUE",
      "doubleSided": false
    },
    {
      "name": "minecraft_block-sand",
      "pbrMetallicRoughness": {
        "baseColorTexture": {
          "index": 1
        },
        "baseColorFactor": [
          1,
          1,
          1,
          1
        ],
        "metallicFactor": 0,
        "roughnessFactor": 1
      },
      "emissiveFactor": [
        0,
        0,
        0
      ],
      "alphaMode": "OPAQUE",
      "doubleSided": false
    },
    {
      "name": "minecraft_block-grass_block_side",
      "pbrMetallicRoughness": {
        "baseColorTexture": {
          "index": 2
        },
        "baseColorFactor": [
          1,
          1,
          1,
          1
        ],
        "metallicFactor": 0,
        "roughnessFactor": 1
      },
      "emissiveFactor": [
        0,
        0,
        0
      ],
      "alphaMode": "OPAQUE",
      "doubleSided": false
    },
    {
      "name": "minecraft_block-water_still",
      "pbrMetallicRoughness": {
        "baseColorTexture": {
          "index": 3
        },
        "baseColorFactor": [
          1,
          1,
          1,
          1
        ],
        "metallicFactor": 0,
        "roughnessFactor": 1
      },
      "emissiveFactor": [
        0,
        0,
        0
      ],
      "alphaMode": "BLEND",
      "doubleSided": true
    },
    {
      "name": "minecraft_block-dirt",
      "pbrMetallicRoughness": {
        "baseColorTexture": {
          "index": 4
        },
        "baseColorFactor": [
          1,
          1,
          1,
          1
        ],
        "metallicFactor": 0,
        "roughnessFactor": 1
      },
      "emissiveFactor": [
        0,
        0,
        0
      ],
      "alphaMode": "OPAQUE",
      "doubleSided": false
    },
    {
      "name": "minecraft_block-grass_block_top",
      "pbrMetallicRoughness": {
        "baseColorTexture": {
          "index": 5
        },
        "baseColorFactor": [
          1,
          1,
          1,
          1
        ],
        "metallicFactor": 0,
        "roughnessFactor": 1
      },
      "emissiveFactor": [
        0,
        0,
        0
      ],
      "alphaMode": "OPAQUE",
      "doubleSided": false
    },
    {
      "name": "minecraft_block-water_flow",
      "pbrMetallicRoughness": {
        "baseColorTexture": {
          "index": 6
        },
        "baseColorFactor": [
          1,
          1,
          1,
          1
        ],
        "metallicFactor": 0,
        "roughnessFactor": 1
      },
      "emissiveFactor": [
        0,
        0,
        0
      ],
      "alphaMode": "BLEND",
      "doubleSided": true
    }
  ],
  "meshes": [
    {
      "name": "Node-Mesh",
      "primitives": [
        {
          "attributes": {
            "POSITION": 0,
            "TEXCOORD_0": 1
          },
          "indices": 2,
          "material": 0,
          "mode": 4
        },
        {
          "attributes": {
            "POSITION": 3,
            "TEXCOORD_0": 4
          },
          "indices": 5,
          "material": 1,
          "mode": 4
        },
        {
          "attributes": {
            "POSITION": 6,
            "TEXCOORD_0": 7
          },
          "indices": 8,
          "material": 2,
          "mode": 4
        },
        {
          "attributes": {
            "POSITION": 9,
            "TEXCOORD_0": 10
          },
          "indices": 11,
          "material": 3,
          "mode": 4
        },
        {
          "attributes": {
            "POSITION": 12,
            "TEXCOORD_0": 13
          },
          "indices": 14,
          "material": 4,
          "mode": 4
        },
        {
          "attributes": {
            "POSITION": 15,
            "TEXCOORD_0": 16
          },
          "indices": 17,
          "material": 5,
          "mode": 4
        },
        {
          "attributes": {
            "POSITION": 18,
            "TEXCOORD_0": 19
          },
          "indices": 20,
          "material": 6,
          "mode": 4
        }
      ]
    }
  ],
  "nodes": [
    {
      "name": "Node",
      "mesh": 0
    }
  ],
  "samplers": [
    {
      "wrapS": 10497,
      "wrapT": 10497
    }
  ],
  "scene": 0,
  "scenes": [
    {
      "nodes": [
        0
      ]
    }
  ],
  "textures": [
    {
      "name": "stone",
      "sampler": 0,
      "source": 0
    },
    {
      "name": "sand",
      "sampler": 0,
      "source": 1
    },
    {
      "name": "grass_block_side",
      "sampler": 0,
      "source": 2
    },
    {
      "name": "water_still",
      "sampler": 0,
      "source": 3
    },
    {
      "name": "dirt",
      "sampler": 0,
      "source": 4
    },
    {
      "name": "grass_block_top",
      "sampler": 0,
      "source": 5
    },
    {
      "name": "water_flow",
      "sampler": 0,
      "source": 6
    }
  ]
}
